<svg width="30" height="27" viewBox="0 0 30 27" fill="none" xmlns="http://www.w3.org/2000/svg">
<path d="M21.7994 0.899067L11.0109 3.3075C10.2996 3.46623 10.2019 4.41426 10.8559 4.7345L12.8896 5.73052C17.2574 7.8696 19.8822 11.1914 19.876 11.1855C22.7184 14.5578 28.3168 13.4883 29.5114 8.7088C30.6852 4.14138 26.5493 -0.161326 21.7994 0.899067Z" fill="#9CD7F2"/>
<path d="M21.942 6.89395C21.95 6.89719 18.2823 4.7826 13.4329 4.41194L11.175 4.23932C10.8236 4.21246 10.5819 3.98363 10.4937 3.70825C10.3247 4.05726 10.4327 4.52725 10.8559 4.73449L12.8896 5.73046C17.2575 7.86953 19.8822 11.1914 19.876 11.1854C22.7184 14.5577 28.3168 13.4882 29.5114 8.70868C29.8611 7.34825 29.7394 6.01139 29.271 4.83261C27.8415 7.2829 24.667 8.35203 21.942 6.89395Z" fill="#71C5DB"/>
<path d="M24.744 18.4535L18.1854 14.8902C17.6169 14.5814 16.9879 15.1321 17.2015 15.7457L17.5854 16.8484C18.7449 20.179 18.7623 23.05 18.7563 22.9195C18.9016 26.0753 22.4348 28.0122 25.1527 26.2243C28.0015 24.3241 27.7541 20.0888 24.744 18.4535Z" fill="#9CD7F2"/>
<path d="M21.1925 22.2271C21.2308 22.3519 20.4992 19.5758 18.5469 16.6387L17.9005 15.6663C17.7041 15.3709 17.756 15.0314 17.9455 14.8094C17.4573 14.7375 17.0179 15.2182 17.2015 15.7457L17.5854 16.8484C18.745 20.179 18.7624 23.05 18.7563 22.9195C18.9017 26.0754 22.4349 28.0123 25.1527 26.2244C25.664 25.8833 26.0749 25.4669 26.3887 25.0041C24.3089 25.6427 21.8949 24.5169 21.1925 22.2271Z" fill="#71C5DB"/>
<path d="M10.9246 15.755C8.41627 13.6293 5.61466 11.4781 3.13572 6.94684C2.65091 6.2391 1.5636 6.49039 1.46478 7.34279L0.121835 18.9219C-0.472328 24.0451 4.60208 27.9026 9.29478 26.1344C13.6526 24.493 14.5334 18.698 10.9246 15.755Z" fill="#9CD7F2"/>
<path d="M3.89909 18.6329L2.30873 7.08506C2.28031 6.87857 2.31753 6.69217 2.39898 6.53593C1.96042 6.52204 1.52556 6.81842 1.46472 7.34272L0.121835 18.9219C-0.472328 24.0451 4.60208 27.9026 9.29478 26.1344C10.2722 25.7663 11.0741 25.1887 11.6903 24.4817C8.14373 24.9962 4.44798 22.6179 3.89909 18.6329Z" fill="#71C5DB"/>
</svg>
