<svg width="29" height="29" viewBox="0 0 29 29" fill="none" xmlns="http://www.w3.org/2000/svg">
<path d="M14.872 3.02979C8.51407 3.02979 3.3598 8.18387 3.3598 14.5418C3.3598 20.8997 8.51407 26.054 14.872 26.054C21.2299 26.054 26.384 20.8997 26.384 14.5418C26.372 8.18867 21.2251 3.04178 14.872 3.02979Z" fill="white"/>
<path d="M22.6647 23.0119C18.2593 27.0666 11.4815 27.0666 7.0761 23.0119C11.4815 18.9574 18.2593 18.9574 22.6647 23.0119Z" fill="#A5BFCE"/>
<path d="M15.8172 16.1799C15.0506 16.8879 13.7575 16.3924 13.234 15.4871C12.7106 14.5819 12.9261 13.2148 13.9268 12.9039L22.0736 10.3854L15.8172 16.1799Z" fill="#71C5DB"/>
<path d="M14.872 0.585083C7.16394 0.585083 0.915236 6.83379 0.915236 14.5419C0.915236 22.2499 7.16394 28.4986 14.872 28.4986C22.5801 28.4986 28.8288 22.2499 28.8288 14.5419C28.8153 6.83932 22.5745 0.598551 14.872 0.585083ZM14.872 26.0509C8.70061 26.0382 3.63231 21.1699 3.37217 15.0037H4.60387C4.85866 15.0037 5.06566 14.7968 5.06566 14.5419C5.06566 14.2869 4.85884 14.0801 4.60387 14.0801H3.37217C3.43933 12.3733 3.88876 10.7036 4.68689 9.19368L5.76454 9.80953C5.98556 9.93702 6.26821 9.86119 6.3957 9.64016C6.52318 9.41913 6.44754 9.13649 6.22633 9.009L5.15496 8.39315C6.06563 6.95666 7.28054 5.73733 8.71426 4.82167L9.32993 5.89304C9.45741 6.11407 9.74006 6.1899 9.96109 6.06241C10.1823 5.93492 10.2579 5.65227 10.1305 5.43125L9.51461 4.35988C11.0271 3.55935 12.7001 3.10881 14.4102 3.04202V4.27372C14.4015 4.52851 14.6014 4.74215 14.8563 4.75064C14.8615 4.75082 14.8667 4.75082 14.872 4.75082C15.1268 4.75082 15.3338 4.544 15.3338 4.28903V3.05752C17.0404 3.12449 18.7101 3.57411 20.22 4.37224L19.6043 5.44988C19.4769 5.67091 19.5525 5.95356 19.7735 6.08104C19.9947 6.20853 20.2774 6.1327 20.4049 5.91168L21.0205 4.84012C22.4557 5.74637 23.6747 6.95611 24.5922 8.38411L23.5206 8.99977C23.2996 9.12726 23.2238 9.40991 23.3513 9.63094C23.4788 9.85215 23.7614 9.92779 23.9824 9.8003L25.054 9.18464C25.8521 10.6944 26.3016 12.3642 26.3687 14.0708H25.1372C24.8822 14.0708 24.6752 14.2777 24.6752 14.5326C24.6752 14.7876 24.8822 14.9946 25.1372 14.9946H26.3687C26.115 21.164 21.0467 26.0395 14.872 26.0539V26.0509Z" fill="#465A65"/>
<path d="M15.8572 14.5419C15.8572 15.0859 15.4161 15.5271 14.872 15.5271C14.3279 15.5271 13.8868 15.0859 13.8868 14.5419C13.8868 13.9978 14.3279 13.5566 14.872 13.5566C15.4161 13.5566 15.8572 13.9978 15.8572 14.5419Z" fill="white"/>
</svg>
