<svg width="32" height="28" viewBox="0 0 32 28" fill="none" xmlns="http://www.w3.org/2000/svg">
<path d="M28.0328 13.4848H22.3556C22.0707 13.4848 21.8395 13.2541 21.8395 12.9687C21.8395 12.6833 22.0707 12.4526 22.3556 12.4526H28.0328C29.4556 12.4526 30.6133 11.295 30.6133 9.8721C30.6133 8.44917 29.4556 7.29156 28.0328 7.29156C26.6099 7.29156 25.4522 8.44917 25.4522 9.8721C25.4522 10.1575 25.221 10.3882 24.9361 10.3882C24.6513 10.3882 24.4201 10.1575 24.4201 9.8721C24.4201 7.88047 26.0406 6.2594 28.0328 6.2594C30.0249 6.2594 31.6455 7.88047 31.6455 9.8721C31.6455 11.8637 30.0249 13.4848 28.0328 13.4848Z" fill="#A5BFCE"/>
<path d="M4.9222 10.0868C4.84479 9.76265 4.79937 9.42614 4.79937 9.07831C4.79937 6.66604 6.7714 4.71106 9.20376 4.71106C11.1495 4.71106 13.0255 5.75514 13.6081 7.49027C14.2631 7.10785 14.7952 7.0934 15.6101 7.0934C18.0436 7.09285 20.2911 9.00864 20.2911 11.4204C22.724 11.4204 24.42 13.4151 24.42 15.8269C24.42 18.2387 22.448 20.1941 20.0156 20.1941H18.8141H7.20178H6.40084C3.52612 20.1941 1.19538 17.8835 1.19538 15.0331C1.19538 12.6925 2.76794 10.7184 4.9222 10.0868Z" fill="white"/>
<path d="M26.4844 27.322C23.6386 27.322 21.3234 25.0067 21.3234 22.161C21.3234 21.8756 21.5547 21.6449 21.8395 21.6449C22.1244 21.6449 22.3556 21.8756 22.3556 22.161C22.3556 24.4376 24.2079 26.2898 26.4844 26.2898C28.761 26.2898 30.6133 24.4376 30.6133 22.161C30.6133 19.8844 28.761 18.0322 26.4844 18.0322H7.38861C7.10375 18.0322 6.87253 17.8015 6.87253 17.5161C6.87253 17.2307 7.10375 17 7.38861 17H26.4844C29.3302 17 31.6454 19.3153 31.6454 22.161C31.6454 25.0067 29.3302 27.322 26.4844 27.322Z" fill="#A5BFCE"/>
<path d="M15.6463 26.8058C13.6541 26.8058 12.0336 25.1848 12.0336 23.1931C12.0336 22.9077 12.2648 22.6771 12.5497 22.6771C12.8345 22.6771 13.0658 22.9077 13.0658 23.1931C13.0658 24.616 14.2234 25.7737 15.6463 25.7737C17.0692 25.7737 18.2268 24.6161 18.2268 23.1931C18.2268 21.7702 17.0692 20.6126 15.6463 20.6126H4.80814C4.52327 20.6126 4.29205 20.3819 4.29205 20.0965C4.29205 19.8111 4.52327 19.5804 4.80814 19.5804H15.6463C17.6385 19.5804 19.259 21.2015 19.259 23.1931C19.259 25.1848 17.6384 26.8058 15.6463 26.8058Z" fill="#C6E2F7"/>
<path d="M2.74363 20.6126H1.19533C0.910463 20.6126 0.679245 20.3819 0.679245 20.0965C0.679245 19.8111 0.910463 19.5804 1.19533 19.5804H2.74363C3.0285 19.5804 3.25972 19.8111 3.25972 20.0965C3.25978 20.3819 3.02856 20.6126 2.74363 20.6126Z" fill="#A5BFCE"/>
<path d="M31.1293 16.5814H30.6132C30.3284 16.5814 30.0971 16.3507 30.0971 16.0653C30.0971 15.7799 30.3284 15.5492 30.6132 15.5492H31.1293C31.4142 15.5492 31.6454 15.7799 31.6454 16.0653C31.6454 16.3507 31.4142 16.5814 31.1293 16.5814Z" fill="#A5BFCE"/>
<path d="M28.5488 16.5814H26.4845C26.1996 16.5814 25.9684 16.3507 25.9684 16.0653C25.9684 15.7799 26.1996 15.5492 26.4845 15.5492H28.5488C28.8337 15.5492 29.0649 15.7799 29.0649 16.0653C29.0649 16.3507 28.8337 16.5814 28.5488 16.5814Z" fill="#C6E2F7"/>
<path d="M22.3556 1.09827H16.1624C15.8775 1.09827 15.6463 0.867592 15.6463 0.582183C15.6463 0.296774 15.8775 0.06604 16.1624 0.06604H22.3556C22.6405 0.06604 22.8717 0.296714 22.8717 0.582122C22.8717 0.867531 22.6405 1.09827 22.3556 1.09827Z" fill="#C6E2F7"/>
<path d="M25.9683 1.09827H24.42C24.1351 1.09827 23.9039 0.867592 23.9039 0.582183C23.9039 0.296775 24.1351 0.0661011 24.42 0.0661011H25.9683C26.2532 0.0661011 26.4844 0.296775 26.4844 0.582183C26.4844 0.867592 26.2532 1.09827 25.9683 1.09827Z" fill="#A5BFCE"/>
<path d="M23.9039 3.67877H17.7107C17.4258 3.67877 17.1946 3.4481 17.1946 3.16269C17.1946 2.87728 17.4258 2.64655 17.7107 2.64655H23.9039C24.1888 2.64655 24.42 2.87722 24.42 3.16263C24.42 3.44804 24.1888 3.67877 23.9039 3.67877Z" fill="#C6E2F7"/>
<path d="M15.6463 3.67883H14.098C13.8131 3.67883 13.5819 3.44816 13.5819 3.16275C13.5819 2.87734 13.8131 2.64667 14.098 2.64667H15.6463C15.9312 2.64667 16.1624 2.87734 16.1624 3.16275C16.1624 3.44816 15.9312 3.67883 15.6463 3.67883Z" fill="#A5BFCE"/>
</svg>
